<svg width="324" height="85" viewBox="0 0 324 85" fill="none" xmlns="http://www.w3.org/2000/svg">
<g filter="url(#filter0_dd_59_4721)">
<path d="M88.1516 58.9149V28.2175L87.5474 23.3833H102.171L112.806 44.5331L123.683 23.3833H137.521V58.9149H125.98V38.5507H125.315L122.777 45.0769L118.366 55.2893H107.368L102.775 45.0769L100.298 38.5507H99.6934V58.9149H88.1516Z" fill="#2370FF"/>
<path d="M155.245 58.9149C152.586 58.9149 150.532 58.5322 149.081 57.7668C147.671 57.0014 146.705 55.954 146.181 54.6246C145.657 53.2549 145.395 51.6837 145.395 49.9112V40.7865C145.395 39.1751 145.657 37.7047 146.181 36.3753C146.745 35.0056 147.732 33.9179 149.142 33.1122C150.552 32.2662 152.586 31.8432 155.245 31.8432H167.754C170.896 31.8432 173.293 32.2259 174.945 32.9913C176.637 33.7165 177.785 34.7639 178.389 36.1336C179.034 37.463 179.356 39.014 179.356 40.7865V48.5213H168.781C165.155 48.5213 162.396 48.4408 160.502 48.2796C158.649 48.1185 157.34 48.0178 156.575 47.9775V48.8839C156.534 50.4953 157.501 51.301 159.475 51.301H161.348C164.571 51.301 167.552 51.2406 170.292 51.1197C173.031 50.9586 175.065 50.8176 176.395 50.6967L180.021 56.4374C180.021 56.8402 179.678 57.223 178.993 57.5855C178.308 57.9481 177.1 58.2704 175.368 58.5524C173.676 58.7941 171.259 58.9149 168.116 58.9149H155.245ZM156.575 42.7202H168.177V41.8743C168.177 41.0685 168.096 40.5046 167.935 40.1823C167.814 39.86 167.391 39.6586 166.666 39.578C165.941 39.4974 164.712 39.4571 162.98 39.4571H159.475C157.541 39.4571 156.575 40.2628 156.575 41.8743V42.7202Z" fill="#2370FF"/>
<path d="M194.649 58.9149C191.99 58.9149 189.996 58.5322 188.667 57.7668C187.378 56.9611 186.512 55.8935 186.069 54.5641C185.666 53.1944 185.464 51.6434 185.464 49.9112V40.7865C185.464 39.2557 185.666 37.8256 186.069 36.4962C186.512 35.1265 187.378 34.0186 188.667 33.1726C189.996 32.2863 191.99 31.8432 194.649 31.8432H196.523C199.463 31.8432 202.122 31.9238 204.499 32.0849C206.916 32.2461 208.568 32.3871 209.454 32.5079V20.6036H220.633V58.9149H211.871L209.515 57.7064C207.823 57.9884 205.99 58.2704 204.016 58.5524C202.082 58.7941 199.564 58.9149 196.462 58.9149H194.649ZM199.544 51.301H207.581C208.427 51.301 208.951 51.2003 209.152 50.9989C209.353 50.7975 209.454 50.2939 209.454 49.4882V39.8801C208.447 39.7996 207.259 39.719 205.889 39.6384C204.519 39.5176 203.009 39.4571 201.357 39.4571H199.544C197.61 39.4571 196.643 40.2628 196.643 41.8743V48.8839C196.643 49.6896 196.865 50.2939 197.308 50.6967C197.751 51.0996 198.497 51.301 199.544 51.301Z" fill="#2370FF"/>
</g>
<rect x="235.138" y="7.16046" width="81.1179" height="69.9309" rx="14.5241" fill="url(#paint0_linear_59_4721)"/>
<g filter="url(#filter1_dd_59_4721)">
<path d="M244.904 62.6216V21.6302H254.106V62.6216H244.904Z" fill="#F2F2F2"/>
<path d="M256.197 62.6216L276.623 21.6302H290.357L310.713 62.6216H299.977L295.864 53.768H270.907L266.375 62.6216H256.197ZM273.416 46.9361H293.285L283.734 27.9044H283.037L273.416 46.9361Z" fill="#F2F2F2"/>
</g>
<path d="M30.3582 54.3414C30.3586 54.0315 30.6104 53.7794 30.9203 53.7793C31.2303 53.7793 31.4822 54.0315 31.4824 54.3414L31.4817 60.6771L31.4811 74.4332C31.481 75.2444 31.6417 76.0481 31.952 76.7976C32.2624 77.547 32.7174 78.2286 33.2909 78.8022C33.8646 79.3758 34.5461 79.8307 35.2956 80.1412C36.0451 80.4516 36.8487 80.6121 37.66 80.6121C39.2982 80.612 40.8691 79.9605 42.0276 78.8022C43.186 77.6437 43.8381 76.0722 43.8382 74.4339L43.8375 62.7576C43.8374 62.7535 43.8368 62.7487 43.8368 62.7445L43.8375 58.834C43.8375 58.8317 43.8374 58.8294 43.8375 58.8271L43.8382 58.7077C43.8385 58.3978 44.0897 58.1464 44.3996 58.1463C44.7094 58.1464 44.9606 58.3979 44.961 58.7077V74.4339C44.9609 76.3701 44.1915 78.2279 42.8224 79.597C41.4533 80.966 39.5961 81.7348 37.66 81.7349C36.7012 81.7349 35.7512 81.5459 34.8654 81.179C33.9797 80.8121 33.1747 80.2742 32.4968 79.5963C31.819 78.9184 31.281 78.1134 30.9141 77.2278C30.5473 76.342 30.3582 75.3919 30.3582 74.4332L30.3576 65.5799C30.3575 65.5778 30.3576 65.5751 30.3576 65.573L30.3582 54.3414Z" fill="#6D7E8F"/>
<path d="M40.9072 57.5289C42.5471 55.493 45.5251 55.1702 47.5585 56.8082C49.5921 58.4462 49.9111 61.4245 48.2713 63.4604C46.6313 65.4964 43.6535 65.8189 41.62 64.1811C39.5865 62.5432 39.2673 59.5649 40.9072 57.5289Z" fill="url(#paint1_radial_59_4721)"/>
<path d="M43.6411 59.7308C44.0634 59.2065 44.8304 59.1234 45.3542 59.5453C45.878 59.9672 45.9602 60.7342 45.5378 61.2586C45.1154 61.783 44.3485 61.866 43.8247 61.4441C43.301 61.0222 43.2187 60.2552 43.6411 59.7308Z" fill="black"/>
<path d="M10.065 25.3364C7.18795 25.3364 4.85562 22.0588 4.85562 18.0157C4.85562 13.9726 7.18795 10.695 10.065 10.695C12.9421 10.695 15.2744 13.9726 15.2744 18.0157C15.2744 22.0588 12.9421 25.3364 10.065 25.3364Z" fill="#D8DEE8" stroke="#005BE3" stroke-width="0.690645" stroke-miterlimit="10"/>
<path d="M25.9864 0.276459H35.7911C45.8446 0.276459 53.9946 8.42631 53.9946 18.48C53.9946 23.8447 49.6458 28.1935 44.281 28.1935H17.4963C12.1315 28.1935 7.78269 23.8447 7.78269 18.48C7.78269 8.42654 15.9328 0.276459 25.9862 0.276459H25.9864Z" fill="white" stroke="#005BE3" stroke-width="0.55294" stroke-miterlimit="10"/>
<path d="M27.7085 48.0984H34.0695C40.5919 48.0984 45.8794 42.8108 45.8794 36.2885C45.8794 32.808 43.0581 29.9867 39.5776 29.9867H22.2004C18.7201 29.9867 15.8986 32.8082 15.8986 36.2885C15.8986 42.8108 21.1861 48.0984 27.7085 48.0984Z" fill="white" stroke="#005BE3" stroke-width="0.55294" stroke-miterlimit="10"/>
<g style="mix-blend-mode:soft-light" opacity="0.3">
<path d="M24.1254 25.6401C26.8973 22.3833 25.6655 19.7788 29.2893 15.3653C34.2752 9.29256 40.0919 9.97979 41.4242 5.86101C41.7934 4.71982 41.8358 3.15336 40.8456 0.987823C48.4399 3.17841 53.9946 10.18 53.9946 18.4795C53.9946 23.8443 49.6458 28.1931 44.2813 28.1931H20.9388C22.3369 27.4309 23.3587 26.5408 24.1254 25.6399V25.6401Z" fill="white"/>
<path d="M24.1254 25.6401C26.8973 22.3833 25.6655 19.7788 29.2893 15.3653C34.2752 9.29256 40.0919 9.97979 41.4242 5.86101C41.7934 4.71982 41.8358 3.15336 40.8456 0.987823C48.4399 3.17841 53.9946 10.18 53.9946 18.4795C53.9946 23.8443 49.6458 28.1931 44.2813 28.1931H20.9388C22.3369 27.4309 23.3587 26.5408 24.1254 25.6399V25.6401Z" stroke="#005BE3" stroke-width="0.105927"/>
</g>
<path d="M51.3751 25.2857C48.498 25.2857 46.1657 22.0081 46.1657 17.965C46.1657 13.9219 48.498 10.6443 51.3751 10.6443C54.2521 10.6443 56.5845 13.9219 56.5845 17.965C56.5845 22.0081 54.2521 25.2857 51.3751 25.2857Z" fill="#D8DEE8" stroke="#005BE3" stroke-width="0.690645" stroke-miterlimit="10"/>
<path d="M55.1648 21.2135C53.9067 21.2135 52.8868 19.7802 52.8868 18.0122C52.8868 16.2442 53.9067 14.811 55.1648 14.811C56.423 14.811 57.4429 16.2442 57.4429 18.0122C57.4429 19.7802 56.423 21.2135 55.1648 21.2135Z" fill="#BFC8D6" stroke="#005BE3" stroke-width="0.690645" stroke-miterlimit="10"/>
<g style="mix-blend-mode:multiply" opacity="0.4">
<path d="M26.142 41.5968C27.0146 37.4983 36.6681 37.5971 36.9305 34.9182C37.1328 32.8531 31.5906 30.8083 30.894 30.5514C30.2983 30.3315 29.7073 30.1457 29.1219 29.9865H39.5776C43.0578 29.9865 45.8794 32.8078 45.8794 36.2883C45.8794 42.8109 40.5921 48.0982 34.0695 48.0982H27.7085C27.0973 48.0982 26.4969 48.0517 25.9108 47.9622C26.4643 47.2761 26.8253 46.5255 26.9126 45.7064C27.1062 43.8908 25.8037 43.1847 26.142 41.5965V41.5968Z" fill="#D8DEE8"/>
<path d="M26.142 41.5968C27.0146 37.4983 36.6681 37.5971 36.9305 34.9182C37.1328 32.8531 31.5906 30.8083 30.894 30.5514C30.2983 30.3315 29.7073 30.1457 29.1219 29.9865H39.5776C43.0578 29.9865 45.8794 32.8078 45.8794 36.2883C45.8794 42.8109 40.5921 48.0982 34.0695 48.0982H27.7085C27.0973 48.0982 26.4969 48.0517 25.9108 47.9622C26.4643 47.2761 26.8253 46.5255 26.9126 45.7064C27.1062 43.8908 25.8037 43.1847 26.142 41.5965V41.5968Z" stroke="#005BE3" stroke-width="0.137705" stroke-miterlimit="10"/>
</g>
<path d="M30.7322 31.5538C25.1838 31.5538 20.686 31.0093 20.686 30.3375C20.686 29.6657 25.1838 29.1211 30.7322 29.1211C36.2805 29.1211 40.7783 29.6657 40.7783 30.3375C40.7783 31.0093 36.2805 31.5538 30.7322 31.5538Z" fill="#D8DEE8" stroke="#005BE3" stroke-width="0.55294" stroke-miterlimit="10"/>
<g filter="url(#filter2_ddddd_59_4721)">
<rect x="11.0088" y="5.12491" width="33.4434" height="13.043" rx="5.13218" fill="#97C0FF"/>
<rect width="25.2332" height="9.72528" transform="translate(15.1138 6.78378)" fill="#97C0FF"/>
<circle cx="35.5769" cy="11.554" r="4.77024" fill="#002E72"/>
<circle cx="35.535" cy="11.7801" r="4.36901" transform="rotate(-4.93842 35.535 11.7801)" fill="#005BE3"/>
<circle cx="35.2198" cy="11.9998" r="3.70028" fill="black"/>
<path d="M34.5068 11.5027C34.2395 11.6902 33.9093 11.7655 33.5872 11.7125C33.265 11.6595 32.9764 11.4823 32.7833 11.219C32.5902 10.9558 32.508 10.6273 32.5542 10.3041C32.6004 9.98087 32.7714 9.68863 33.0306 9.49002C33.2897 9.29141 33.6164 9.20224 33.9405 9.24163C34.2646 9.28102 34.5604 9.44583 34.7645 9.70073C34.9685 9.95564 35.0645 10.2803 35.032 10.6052C34.9994 10.9301 34.8409 11.2293 34.5904 11.4387L33.7899 10.4808L34.5068 11.5027Z" fill="white"/>
<circle cx="36.7795" cy="14.3616" r="0.52985" transform="rotate(-101.256 36.7795 14.3616)" fill="white"/>
<circle cx="19.884" cy="11.554" r="4.77024" fill="#002E72"/>
<circle cx="19.8427" cy="11.7801" r="4.36901" transform="rotate(-4.93842 19.8427 11.7801)" fill="#005BE3"/>
<circle cx="19.5269" cy="11.9998" r="3.70028" fill="black"/>
<path d="M18.8139 11.5027C18.5466 11.6902 18.2165 11.7655 17.8943 11.7125C17.5721 11.6595 17.2836 11.4823 17.0905 11.219C16.8974 10.9558 16.8151 10.6273 16.8613 10.3041C16.9075 9.98087 17.0786 9.68863 17.3377 9.49002C17.5969 9.29141 17.9235 9.20224 18.2476 9.24163C18.5718 9.28102 18.8675 9.44583 19.0716 9.70073C19.2756 9.95564 19.3717 10.2803 19.3391 10.6052C19.3066 10.9301 19.148 11.2293 18.8975 11.4387L18.097 10.4808L18.8139 11.5027Z" fill="white"/>
<circle cx="21.0866" cy="14.3616" r="0.52985" transform="rotate(-101.256 21.0866 14.3616)" fill="white"/>
</g>
<g filter="url(#filter3_ddddd_59_4721)">
<path d="M38.708 20.43C37.9323 22.2789 36.6258 23.8562 34.9537 24.9626C33.2816 26.0689 31.3189 26.6546 29.3139 26.6455C27.3089 26.6364 25.3517 26.033 23.6896 24.9115C22.0276 23.7901 20.7354 22.201 19.9766 20.3451L20.8761 19.9773C21.5623 21.6552 22.7305 23.092 24.2332 24.1059C25.7359 25.1199 27.5056 25.6654 29.3183 25.6736C31.1311 25.6819 32.9056 25.1523 34.4174 24.152C35.9292 23.1518 37.1105 21.7256 37.8118 20.054L38.708 20.43Z" fill="#005BE3"/>
</g>
<path d="M54.1923 32.7747C54.545 32.9765 54.9946 32.8542 55.1964 32.5015L59.7138 24.6077C60.8899 22.5525 60.1732 19.9227 58.116 18.7455L57.2905 18.2731C56.9378 18.0713 56.4882 18.1936 56.2864 18.5463C56.0846 18.899 56.2069 19.3486 56.5596 19.5504L57.3849 20.0227C58.7378 20.797 59.2096 22.5259 58.4365 23.8768L53.919 31.7707C53.7173 32.1234 53.8396 32.5728 54.1923 32.7747Z" fill="url(#paint2_linear_59_4721)"/>
<path d="M55.5631 19.69L56.7816 20.3873C57.402 20.7424 58.1927 20.5273 58.5478 19.9069C58.9029 19.2865 58.6878 18.4957 58.0673 18.1407L56.8488 17.4434C56.2284 17.0883 55.4377 17.3034 55.0827 17.9238C54.7276 18.5443 54.9427 19.335 55.5631 19.69L55.5631 19.69Z" fill="#2C3245"/>
<path d="M7.81797 32.7748C7.46528 32.9766 7.0157 32.8543 6.81386 32.5016L2.29645 24.6079C1.12032 22.5527 1.83709 19.9229 3.89429 18.7457L4.71974 18.2733C5.07242 18.0714 5.52201 18.1937 5.72384 18.5464C5.92567 18.8991 5.80337 19.3487 5.45068 19.5505L4.62532 20.0229C3.27244 20.7971 2.80066 22.526 3.57374 23.8769L8.09121 31.7708C8.29295 32.1236 8.17066 32.573 7.81797 32.7748Z" fill="url(#paint3_linear_59_4721)"/>
<path d="M7.29969 19.1223L6.08119 19.8197C5.46077 20.1747 4.6701 19.9596 4.31501 19.3392C3.95985 18.7188 4.17499 17.928 4.79545 17.573L6.01396 16.8757C6.63438 16.5207 7.42512 16.7358 7.78014 17.3562C8.13524 17.9767 7.92011 18.7674 7.29965 19.1224L7.29969 19.1223Z" fill="#2C3245"/>
<ellipse cx="7.0305" cy="17.7761" rx="0.571683" ry="1.25754" transform="rotate(-29.7152 7.0305 17.7761)" fill="#D9D9D9"/>
<ellipse cx="7.23375" cy="17.6324" rx="0.709935" ry="1.15445" transform="rotate(-29.7152 7.23375 17.6324)" fill="#6D758F"/>
<ellipse cx="7.43753" cy="17.5157" rx="0.442279" ry="0.92929" transform="rotate(-29.7152 7.43753 17.5157)" fill="black"/>
<path d="M53.1323 32.2204C53.4744 31.7135 54.163 31.5792 54.6704 31.9206C55.1778 32.2627 55.312 32.9531 54.9702 33.4606L47.7681 44.1481C47.6095 44.3832 47.3755 44.5367 47.1206 44.6012C47.1183 44.602 47.1152 44.6034 47.1128 44.6042L35.3081 48.1335L35.2583 50.7838C35.212 53.1983 33.2076 55.1249 30.7905 55.0788C28.3736 55.0322 26.4454 53.0301 26.4917 50.6159L26.5405 48.0622L14.9761 44.6051C14.9726 44.6041 14.9688 44.6023 14.9653 44.6012C14.7116 44.5363 14.4798 44.3822 14.3218 44.1481L7.11865 33.4596C6.77689 32.952 6.9119 32.2626 7.41943 31.9206C7.92685 31.5793 8.61553 31.7134 8.95752 32.2204L15.937 42.5778L27.9595 46.1725C27.9629 46.1735 27.9668 46.1744 27.9702 46.1754C28.8721 45.9087 30.0155 45.7841 30.853 45.8083C31.7252 45.8335 32.9365 45.9987 33.8823 46.2829C33.9587 46.2375 34.0414 46.1991 34.1304 46.1725L46.1528 42.5778L53.1323 32.2204ZM29.0044 50.6647C28.9847 51.6951 29.8078 52.5492 30.8394 52.569C31.8703 52.5883 32.7257 51.7669 32.7456 50.737L32.7954 48.1393C32.1576 48.2734 31.4936 48.3359 30.814 48.319C30.2087 48.3039 29.6195 48.2254 29.0532 48.0905L29.0044 50.6647Z" fill="#2356C9"/>
<path d="M10.1404 25.2337C7.26792 25.3959 4.7545 22.255 4.52654 18.2183C4.29857 14.1816 6.44238 10.7777 9.31488 10.6155C9.31488 10.6155 7.95919 13.9749 8.18715 18.0116C8.41512 22.0483 10.1404 25.2337 10.1404 25.2337Z" fill="#D8DEE8" stroke="#005BE3" stroke-width="0.690645" stroke-miterlimit="10"/>
<defs>
<filter id="filter0_dd_59_4721" x="74.7915" y="14.7911" width="158.598" height="63.8231" filterUnits="userSpaceOnUse" color-interpolation-filters="sRGB">
<feFlood flood-opacity="0" result="BackgroundImageFix"/>
<feColorMatrix in="SourceAlpha" type="matrix" values="0 0 0 0 0 0 0 0 0 0 0 0 0 0 0 0 0 0 127 0" result="hardAlpha"/>
<feOffset dy="6.94337"/>
<feGaussianBlur stdDeviation="6.37795"/>
<feComposite in2="hardAlpha" operator="out"/>
<feColorMatrix type="matrix" values="0 0 0 0 0.00387722 0 0 0 0 0.127848 0 0 0 0 0.289964 0 0 0 0.13 0"/>
<feBlend mode="normal" in2="BackgroundImageFix" result="effect1_dropShadow_59_4721"/>
<feColorMatrix in="SourceAlpha" type="matrix" values="0 0 0 0 0 0 0 0 0 0 0 0 0 0 0 0 0 0 127 0" result="hardAlpha"/>
<feOffset dy="3.61631"/>
<feGaussianBlur stdDeviation="3.25468"/>
<feComposite in2="hardAlpha" operator="out"/>
<feColorMatrix type="matrix" values="0 0 0 0 0.00377753 0 0 0 0 0.297742 0 0 0 0 0.519757 0 0 0 0.33 0"/>
<feBlend mode="normal" in2="effect1_dropShadow_59_4721" result="effect2_dropShadow_59_4721"/>
<feBlend mode="normal" in="SourceGraphic" in2="effect2_dropShadow_59_4721" result="shape"/>
</filter>
<filter id="filter1_dd_59_4721" x="232.148" y="15.8177" width="91.3204" height="66.5031" filterUnits="userSpaceOnUse" color-interpolation-filters="sRGB">
<feFlood flood-opacity="0" result="BackgroundImageFix"/>
<feColorMatrix in="SourceAlpha" type="matrix" values="0 0 0 0 0 0 0 0 0 0 0 0 0 0 0 0 0 0 127 0" result="hardAlpha"/>
<feOffset dy="6.94337"/>
<feGaussianBlur stdDeviation="6.37795"/>
<feComposite in2="hardAlpha" operator="out"/>
<feColorMatrix type="matrix" values="0 0 0 0 0.00387722 0 0 0 0 0.127848 0 0 0 0 0.289964 0 0 0 0.13 0"/>
<feBlend mode="normal" in2="BackgroundImageFix" result="effect1_dropShadow_59_4721"/>
<feColorMatrix in="SourceAlpha" type="matrix" values="0 0 0 0 0 0 0 0 0 0 0 0 0 0 0 0 0 0 127 0" result="hardAlpha"/>
<feOffset dy="3.61631"/>
<feGaussianBlur stdDeviation="3.25468"/>
<feComposite in2="hardAlpha" operator="out"/>
<feColorMatrix type="matrix" values="0 0 0 0 0.00377753 0 0 0 0 0.297742 0 0 0 0 0.519757 0 0 0 0.44 0"/>
<feBlend mode="normal" in2="effect1_dropShadow_59_4721" result="effect2_dropShadow_59_4721"/>
<feBlend mode="normal" in="SourceGraphic" in2="effect2_dropShadow_59_4721" result="shape"/>
</filter>
<filter id="filter2_ddddd_59_4721" x="10.9029" y="5.01898" width="35.2441" height="14.2083" filterUnits="userSpaceOnUse" color-interpolation-filters="sRGB">
<feFlood flood-opacity="0" result="BackgroundImageFix"/>
<feColorMatrix in="SourceAlpha" type="matrix" values="0 0 0 0 0 0 0 0 0 0 0 0 0 0 0 0 0 0 127 0" result="hardAlpha"/>
<feOffset/>
<feGaussianBlur stdDeviation="0.0529636"/>
<feColorMatrix type="matrix" values="0 0 0 0 0 0 0 0 0 0 0 0 0 0 0 0 0 0 0.98 0"/>
<feBlend mode="normal" in2="BackgroundImageFix" result="effect1_dropShadow_59_4721"/>
<feColorMatrix in="SourceAlpha" type="matrix" values="0 0 0 0 0 0 0 0 0 0 0 0 0 0 0 0 0 0 127 0" result="hardAlpha"/>
<feOffset dx="0.211854" dy="0.105927"/>
<feGaussianBlur stdDeviation="0.105927"/>
<feColorMatrix type="matrix" values="0 0 0 0 0 0 0 0 0 0 0 0 0 0 0 0 0 0 0.85 0"/>
<feBlend mode="normal" in2="effect1_dropShadow_59_4721" result="effect2_dropShadow_59_4721"/>
<feColorMatrix in="SourceAlpha" type="matrix" values="0 0 0 0 0 0 0 0 0 0 0 0 0 0 0 0 0 0 127 0" result="hardAlpha"/>
<feOffset dx="0.423709" dy="0.211854"/>
<feGaussianBlur stdDeviation="0.158891"/>
<feColorMatrix type="matrix" values="0 0 0 0 0 0 0 0 0 0 0 0 0 0 0 0 0 0 0.5 0"/>
<feBlend mode="normal" in2="effect2_dropShadow_59_4721" result="effect3_dropShadow_59_4721"/>
<feColorMatrix in="SourceAlpha" type="matrix" values="0 0 0 0 0 0 0 0 0 0 0 0 0 0 0 0 0 0 127 0" result="hardAlpha"/>
<feOffset dx="0.847417" dy="0.423709"/>
<feGaussianBlur stdDeviation="0.211854"/>
<feColorMatrix type="matrix" values="0 0 0 0 0 0 0 0 0 0 0 0 0 0 0 0 0 0 0.15 0"/>
<feBlend mode="normal" in2="effect3_dropShadow_59_4721" result="effect4_dropShadow_59_4721"/>
<feColorMatrix in="SourceAlpha" type="matrix" values="0 0 0 0 0 0 0 0 0 0 0 0 0 0 0 0 0 0 127 0" result="hardAlpha"/>
<feOffset dx="1.27113" dy="0.635563"/>
<feGaussianBlur stdDeviation="0.211854"/>
<feColorMatrix type="matrix" values="0 0 0 0 0 0 0 0 0 0 0 0 0 0 0 0 0 0 0.02 0"/>
<feBlend mode="normal" in2="effect4_dropShadow_59_4721" result="effect5_dropShadow_59_4721"/>
<feBlend mode="normal" in="SourceGraphic" in2="effect5_dropShadow_59_4721" result="shape"/>
</filter>
<filter id="filter3_ddddd_59_4721" x="19.8706" y="19.8713" width="19.8966" height="7.30393" filterUnits="userSpaceOnUse" color-interpolation-filters="sRGB">
<feFlood flood-opacity="0" result="BackgroundImageFix"/>
<feColorMatrix in="SourceAlpha" type="matrix" values="0 0 0 0 0 0 0 0 0 0 0 0 0 0 0 0 0 0 127 0" result="hardAlpha"/>
<feOffset/>
<feGaussianBlur stdDeviation="0.0529636"/>
<feColorMatrix type="matrix" values="0 0 0 0 0 0 0 0 0 0 0 0 0 0 0 0 0 0 0.98 0"/>
<feBlend mode="normal" in2="BackgroundImageFix" result="effect1_dropShadow_59_4721"/>
<feColorMatrix in="SourceAlpha" type="matrix" values="0 0 0 0 0 0 0 0 0 0 0 0 0 0 0 0 0 0 127 0" result="hardAlpha"/>
<feOffset dx="0.105927" dy="0.105927"/>
<feGaussianBlur stdDeviation="0.0529636"/>
<feColorMatrix type="matrix" values="0 0 0 0 0 0 0 0 0 0 0 0 0 0 0 0 0 0 0.85 0"/>
<feBlend mode="normal" in2="effect1_dropShadow_59_4721" result="effect2_dropShadow_59_4721"/>
<feColorMatrix in="SourceAlpha" type="matrix" values="0 0 0 0 0 0 0 0 0 0 0 0 0 0 0 0 0 0 127 0" result="hardAlpha"/>
<feOffset dx="0.317781" dy="0.105927"/>
<feGaussianBlur stdDeviation="0.105927"/>
<feColorMatrix type="matrix" values="0 0 0 0 0 0 0 0 0 0 0 0 0 0 0 0 0 0 0.5 0"/>
<feBlend mode="normal" in2="effect2_dropShadow_59_4721" result="effect3_dropShadow_59_4721"/>
<feColorMatrix in="SourceAlpha" type="matrix" values="0 0 0 0 0 0 0 0 0 0 0 0 0 0 0 0 0 0 127 0" result="hardAlpha"/>
<feOffset dx="0.529636" dy="0.211854"/>
<feGaussianBlur stdDeviation="0.105927"/>
<feColorMatrix type="matrix" values="0 0 0 0 0 0 0 0 0 0 0 0 0 0 0 0 0 0 0.15 0"/>
<feBlend mode="normal" in2="effect3_dropShadow_59_4721" result="effect4_dropShadow_59_4721"/>
<feColorMatrix in="SourceAlpha" type="matrix" values="0 0 0 0 0 0 0 0 0 0 0 0 0 0 0 0 0 0 127 0" result="hardAlpha"/>
<feOffset dx="0.847417" dy="0.317781"/>
<feGaussianBlur stdDeviation="0.105927"/>
<feColorMatrix type="matrix" values="0 0 0 0 0 0 0 0 0 0 0 0 0 0 0 0 0 0 0.02 0"/>
<feBlend mode="normal" in2="effect4_dropShadow_59_4721" result="effect5_dropShadow_59_4721"/>
<feBlend mode="normal" in="SourceGraphic" in2="effect5_dropShadow_59_4721" result="shape"/>
</filter>
<linearGradient id="paint0_linear_59_4721" x1="317.414" y1="40.1031" x2="235.717" y2="40.1031" gradientUnits="userSpaceOnUse">
<stop stop-color="#2370FF"/>
<stop offset="1" stop-color="#4E8CFF"/>
</linearGradient>
<radialGradient id="paint1_radial_59_4721" cx="0" cy="0" r="1" gradientUnits="userSpaceOnUse" gradientTransform="translate(44.5893 60.4946) rotate(45) scale(4.72837 4.73388)">
<stop stop-color="#49516D"/>
<stop offset="1" stop-color="#8D9DD3"/>
</radialGradient>
<linearGradient id="paint2_linear_59_4721" x1="65.1909" y1="29.3233" x2="55.4384" y2="23.4851" gradientUnits="userSpaceOnUse">
<stop stop-color="white"/>
<stop offset="0.464989" stop-color="#DADCE3"/>
<stop offset="0.552962" stop-color="#757B91"/>
<stop offset="0.63804" stop-color="#353E5C"/>
<stop offset="0.714922" stop-color="#59617C"/>
<stop offset="0.825924" stop-color="#8E94A9"/>
<stop offset="1" stop-color="#6D758F"/>
</linearGradient>
<linearGradient id="paint3_linear_59_4721" x1="-3.18063" y1="29.3235" x2="6.57182" y2="23.4852" gradientUnits="userSpaceOnUse">
<stop stop-color="white"/>
<stop offset="0.464989" stop-color="#DADCE3"/>
<stop offset="0.552962" stop-color="#757B91"/>
<stop offset="0.63804" stop-color="#353E5C"/>
<stop offset="0.714922" stop-color="#59617C"/>
<stop offset="0.825924" stop-color="#8E94A9"/>
<stop offset="1" stop-color="#6D758F"/>
</linearGradient>
</defs>
</svg>
