<svg width="366" height="162" viewBox="0 0 366 162" fill="none" xmlns="http://www.w3.org/2000/svg">
<g filter="url(#filter0_dd_2_17)">
<path d="M130.446 91.2535V60.5561L129.842 55.7218H144.465L155.101 76.8716L165.978 55.7218H179.816V91.2535H168.274V70.8892H167.609L165.071 77.4155L160.66 87.6278H149.662L145.07 77.4155L142.592 70.8892H141.988V91.2535H130.446Z" fill="#2370FF"/>
<path d="M197.54 91.2535C194.881 91.2535 192.826 90.8708 191.376 90.1053C189.966 89.3399 188.999 88.2925 188.475 86.9631C187.952 85.5934 187.69 84.0223 187.69 82.2497V73.1251C187.69 71.5137 187.952 70.0433 188.475 68.7138C189.039 67.3441 190.026 66.2564 191.436 65.4507C192.846 64.6047 194.881 64.1817 197.54 64.1817H210.048C213.19 64.1817 215.587 64.5645 217.239 65.3299C218.931 66.055 220.079 67.1024 220.683 68.4721C221.328 69.8015 221.65 71.3525 221.65 73.1251V80.8599H211.075C207.45 80.8599 204.69 80.7793 202.797 80.6181C200.944 80.457 199.634 80.3563 198.869 80.316V81.2224C198.829 82.8338 199.795 83.6395 201.769 83.6395H203.643C206.866 83.6395 209.847 83.5791 212.586 83.4583C215.325 83.2971 217.36 83.1561 218.689 83.0353L222.315 88.7759C222.315 89.1788 221.973 89.5615 221.288 89.9241C220.603 90.2866 219.394 90.6089 217.662 90.8909C215.97 91.1326 213.553 91.2535 210.411 91.2535H197.54ZM198.869 75.0588H210.471V74.2128C210.471 73.4071 210.391 72.8431 210.229 72.5208C210.109 72.1985 209.686 71.9971 208.96 71.9165C208.235 71.8359 207.007 71.7957 205.274 71.7957H201.769C199.836 71.7957 198.869 72.6014 198.869 74.2128V75.0588Z" fill="#2370FF"/>
<path d="M236.944 91.2535C234.285 91.2535 232.291 90.8708 230.961 90.1053C229.672 89.2996 228.806 88.2321 228.363 86.9027C227.96 85.533 227.759 83.982 227.759 82.2497V73.1251C227.759 71.5942 227.96 70.1641 228.363 68.8347C228.806 67.465 229.672 66.3571 230.961 65.5112C232.291 64.6249 234.285 64.1817 236.944 64.1817H238.817C241.758 64.1817 244.417 64.2623 246.793 64.4235C249.211 64.5846 250.862 64.7256 251.749 64.8464V52.9421H262.928V91.2535H254.166L251.809 90.0449C250.117 90.3269 248.284 90.6089 246.31 90.8909C244.376 91.1326 241.859 91.2535 238.757 91.2535H236.944ZM241.838 83.6395H249.875C250.721 83.6395 251.245 83.5388 251.446 83.3374C251.648 83.136 251.749 82.6324 251.749 81.8267V72.2187C250.741 72.1381 249.553 72.0575 248.183 71.9769C246.814 71.8561 245.303 71.7957 243.651 71.7957H241.838C239.905 71.7957 238.938 72.6014 238.938 74.2128V81.2224C238.938 82.0281 239.159 82.6324 239.603 83.0353C240.046 83.4381 240.791 83.6395 241.838 83.6395Z" fill="#2370FF"/>
</g>
<g filter="url(#filter1_dd_2_17)">
<rect x="27.7185" y="19.1025" width="86.0167" height="106.353" rx="43.0083" fill="white"/>
</g>
<path d="M63.0766 62.1889V52.4267M78.6402 62.1889V52.4267M70.8583 42.2492V32.0826L63.0765 33.9659M70.8583 103.345V91.7409M70.8583 103.345C68.4363 103.345 66.473 105.308 66.473 107.73C66.473 110.152 68.4363 112.116 70.8583 112.116C73.2802 112.116 75.2436 110.152 75.2436 107.73C75.2436 105.308 73.2802 103.345 70.8583 103.345ZM70.8583 91.7409C58.5094 91.7409 48.4992 83.72 48.4992 73.8246M70.8583 91.7409C83.2069 91.7409 93.2179 83.72 93.2179 73.8246M93.2175 57.3076H98.9243M42.7922 57.3076H48.499M93.2177 51.026V63.5894C93.2177 68.4335 89.2848 72.3661 84.4409 72.3661H57.2758C52.4317 72.3661 48.499 68.4335 48.499 63.5894V51.026C48.499 46.182 52.4317 42.2492 57.2758 42.2492H84.4409C89.2848 42.2492 93.2177 46.182 93.2177 51.026Z" stroke="#2388FF" stroke-width="4.22996" stroke-miterlimit="10" stroke-linecap="round" stroke-linejoin="round"/>
<rect x="277.432" y="39.499" width="81.1179" height="69.9309" rx="14.5241" fill="url(#paint0_linear_2_17)"/>
<g filter="url(#filter2_dd_2_17)">
<path d="M287.198 94.9601V53.9688H296.4V94.9601H287.198Z" fill="#F2F2F2"/>
<path d="M298.491 94.9601L318.917 53.9688H332.651L353.007 94.9601H342.271L338.158 86.1065H313.201L308.669 94.9601H298.491ZM315.71 79.2746H335.579L326.028 60.243H325.331L315.71 79.2746Z" fill="#F2F2F2"/>
</g>
<defs>
<filter id="filter0_dd_2_17" x="117.086" y="47.1296" width="158.598" height="63.8231" filterUnits="userSpaceOnUse" color-interpolation-filters="sRGB">
<feFlood flood-opacity="0" result="BackgroundImageFix"/>
<feColorMatrix in="SourceAlpha" type="matrix" values="0 0 0 0 0 0 0 0 0 0 0 0 0 0 0 0 0 0 127 0" result="hardAlpha"/>
<feOffset dy="6.94337"/>
<feGaussianBlur stdDeviation="6.37795"/>
<feComposite in2="hardAlpha" operator="out"/>
<feColorMatrix type="matrix" values="0 0 0 0 0.00387722 0 0 0 0 0.127848 0 0 0 0 0.289964 0 0 0 0.13 0"/>
<feBlend mode="normal" in2="BackgroundImageFix" result="effect1_dropShadow_2_17"/>
<feColorMatrix in="SourceAlpha" type="matrix" values="0 0 0 0 0 0 0 0 0 0 0 0 0 0 0 0 0 0 127 0" result="hardAlpha"/>
<feOffset dy="3.61631"/>
<feGaussianBlur stdDeviation="3.25468"/>
<feComposite in2="hardAlpha" operator="out"/>
<feColorMatrix type="matrix" values="0 0 0 0 0.00377753 0 0 0 0 0.297742 0 0 0 0 0.519757 0 0 0 0.33 0"/>
<feBlend mode="normal" in2="effect1_dropShadow_2_17" result="effect2_dropShadow_2_17"/>
<feBlend mode="normal" in="SourceGraphic" in2="effect2_dropShadow_2_17" result="shape"/>
</filter>
<filter id="filter1_dd_2_17" x="1.90735e-06" y="-5.72205e-06" width="141.454" height="161.79" filterUnits="userSpaceOnUse" color-interpolation-filters="sRGB">
<feFlood flood-opacity="0" result="BackgroundImageFix"/>
<feColorMatrix in="SourceAlpha" type="matrix" values="0 0 0 0 0 0 0 0 0 0 0 0 0 0 0 0 0 0 127 0" result="hardAlpha"/>
<feOffset dy="6.76339"/>
<feGaussianBlur stdDeviation="3.261"/>
<feComposite in2="hardAlpha" operator="out"/>
<feColorMatrix type="matrix" values="0 0 0 0 0 0 0 0 0 0 0 0 0 0 0 0 0 0 0.06 0"/>
<feBlend mode="normal" in2="BackgroundImageFix" result="effect1_dropShadow_2_17"/>
<feColorMatrix in="SourceAlpha" type="matrix" values="0 0 0 0 0 0 0 0 0 0 0 0 0 0 0 0 0 0 127 0" result="hardAlpha"/>
<feOffset dy="8.616"/>
<feGaussianBlur stdDeviation="13.8592"/>
<feComposite in2="hardAlpha" operator="out"/>
<feColorMatrix type="matrix" values="0 0 0 0 0 0 0 0 0 0 0 0 0 0 0 0 0 0 0.1 0"/>
<feBlend mode="normal" in2="effect1_dropShadow_2_17" result="effect2_dropShadow_2_17"/>
<feBlend mode="normal" in="SourceGraphic" in2="effect2_dropShadow_2_17" result="shape"/>
</filter>
<filter id="filter2_dd_2_17" x="274.442" y="48.1563" width="91.3205" height="66.5031" filterUnits="userSpaceOnUse" color-interpolation-filters="sRGB">
<feFlood flood-opacity="0" result="BackgroundImageFix"/>
<feColorMatrix in="SourceAlpha" type="matrix" values="0 0 0 0 0 0 0 0 0 0 0 0 0 0 0 0 0 0 127 0" result="hardAlpha"/>
<feOffset dy="6.94337"/>
<feGaussianBlur stdDeviation="6.37795"/>
<feComposite in2="hardAlpha" operator="out"/>
<feColorMatrix type="matrix" values="0 0 0 0 0.00387722 0 0 0 0 0.127848 0 0 0 0 0.289964 0 0 0 0.13 0"/>
<feBlend mode="normal" in2="BackgroundImageFix" result="effect1_dropShadow_2_17"/>
<feColorMatrix in="SourceAlpha" type="matrix" values="0 0 0 0 0 0 0 0 0 0 0 0 0 0 0 0 0 0 127 0" result="hardAlpha"/>
<feOffset dy="3.61631"/>
<feGaussianBlur stdDeviation="3.25468"/>
<feComposite in2="hardAlpha" operator="out"/>
<feColorMatrix type="matrix" values="0 0 0 0 0.00377753 0 0 0 0 0.297742 0 0 0 0 0.519757 0 0 0 0.44 0"/>
<feBlend mode="normal" in2="effect1_dropShadow_2_17" result="effect2_dropShadow_2_17"/>
<feBlend mode="normal" in="SourceGraphic" in2="effect2_dropShadow_2_17" result="shape"/>
</filter>
<linearGradient id="paint0_linear_2_17" x1="359.708" y1="72.4416" x2="278.011" y2="72.4416" gradientUnits="userSpaceOnUse">
<stop stop-color="#2370FF"/>
<stop offset="1" stop-color="#4E8CFF"/>
</linearGradient>
</defs>
</svg>
