<svg width="349" height="132" viewBox="0 0 349 132" fill="none" xmlns="http://www.w3.org/2000/svg">
<g filter="url(#filter0_dd_36_5005)">
<path d="M112.857 77.9145V47.2171L112.253 42.3828H126.876L137.512 63.5326L148.389 42.3828H162.227V77.9145H150.685V57.5502H150.02L147.482 64.0765L143.071 74.2888H132.073L127.481 64.0765L125.003 57.5502H124.399V77.9145H112.857Z" fill="#2370FF"/>
<path d="M179.951 77.9145C177.292 77.9145 175.237 77.5318 173.787 76.7663C172.377 76.0009 171.41 74.9535 170.886 73.6241C170.363 72.2544 170.101 70.6833 170.101 68.9107V59.7861C170.101 58.1747 170.363 56.7042 170.886 55.3748C171.45 54.0051 172.437 52.9174 173.847 52.1117C175.257 51.2657 177.292 50.8427 179.951 50.8427H192.459C195.602 50.8427 197.998 51.2254 199.65 51.9909C201.342 52.716 202.49 53.7634 203.095 55.1331C203.739 56.4625 204.061 58.0135 204.061 59.7861V67.5209H193.487C189.861 67.5209 187.101 67.4403 185.208 67.2791C183.355 67.118 182.045 67.0173 181.28 66.977V67.8834C181.24 69.4948 182.207 70.3005 184.181 70.3005H186.054C189.277 70.3005 192.258 70.2401 194.997 70.1193C197.737 69.9581 199.771 69.8171 201.1 69.6963L204.726 75.4369C204.726 75.8398 204.384 76.2225 203.699 76.5851C203.014 76.9476 201.805 77.2699 200.073 77.5519C198.381 77.7936 195.964 77.9145 192.822 77.9145H179.951ZM181.28 61.7198H192.882V60.8738C192.882 60.0681 192.802 59.5041 192.641 59.1818C192.52 58.8595 192.097 58.6581 191.372 58.5775C190.646 58.4969 189.418 58.4567 187.685 58.4567H184.181C182.247 58.4567 181.28 59.2624 181.28 60.8738V61.7198Z" fill="#2370FF"/>
<path d="M219.355 77.9145C216.696 77.9145 214.702 77.5318 213.373 76.7663C212.083 75.9606 211.217 74.8931 210.774 73.5637C210.371 72.194 210.17 70.643 210.17 68.9107V59.7861C210.17 58.2552 210.371 56.8251 210.774 55.4957C211.217 54.126 212.083 53.0181 213.373 52.1722C214.702 51.2859 216.696 50.8427 219.355 50.8427H221.228C224.169 50.8427 226.828 50.9233 229.205 51.0844C231.622 51.2456 233.273 51.3866 234.16 51.5074V39.6031H245.339V77.9145H236.577L234.22 76.7059C232.528 76.9879 230.695 77.2699 228.721 77.5519C226.788 77.7936 224.27 77.9145 221.168 77.9145H219.355ZM224.25 70.3005H232.286C233.132 70.3005 233.656 70.1998 233.858 69.9984C234.059 69.797 234.16 69.2934 234.16 68.4877V58.8797C233.153 58.7991 231.964 58.7185 230.594 58.6379C229.225 58.5171 227.714 58.4567 226.062 58.4567H224.25C222.316 58.4567 221.349 59.2624 221.349 60.8738V67.8834C221.349 68.6891 221.571 69.2934 222.014 69.6963C222.457 70.0991 223.202 70.3005 224.25 70.3005Z" fill="#2370FF"/>
</g>
<rect x="259.843" y="26.16" width="81.1179" height="69.9309" rx="14.5241" fill="url(#paint0_linear_36_5005)"/>
<g filter="url(#filter1_dd_36_5005)">
<path d="M269.61 81.6211V40.6298H278.812V81.6211H269.61Z" fill="#F2F2F2"/>
<path d="M280.903 81.6211L301.329 40.6298H315.062L335.418 81.6211H324.683L320.57 72.7675H295.612L291.081 81.6211H280.903ZM298.122 65.9356H317.99L308.44 46.904H307.742L298.122 65.9356Z" fill="#F2F2F2"/>
</g>
<g filter="url(#filter2_ddddd_36_5005)">
<g filter="url(#filter3_dd_36_5005)">
<rect x="15.5674" y="10.7284" width="81.5205" height="100.794" rx="40.7603" fill="#E7F2FF"/>
</g>
</g>
<g filter="url(#filter4_ddddd_36_5005)">
<path d="M55.0638 73.3409C55.0641 73.0311 55.316 72.7789 55.6259 72.7789C55.9359 72.7789 56.1877 73.031 56.188 73.3409L56.1873 79.6766L56.1866 93.4327C56.1866 94.2439 56.3472 95.0476 56.6576 95.7971C56.968 96.5466 57.423 97.2281 57.9965 97.8017C58.5701 98.3754 59.2517 98.8302 60.0011 99.1407C60.7507 99.4511 61.5542 99.6117 62.3655 99.6116C64.0038 99.6116 65.5747 98.9601 66.7331 97.8017C67.8916 96.6432 68.5437 95.0717 68.5437 93.4334L68.543 81.7572C68.5429 81.753 68.5423 81.7483 68.5423 81.7441L68.543 77.8336C68.543 77.8313 68.543 77.829 68.543 77.8267L68.5437 77.7072C68.5441 77.3974 68.7952 77.1459 69.1051 77.1458C69.415 77.1459 69.6662 77.3974 69.6665 77.7072V93.4334C69.6665 95.3696 68.897 97.2274 67.528 98.5965C66.1588 99.9655 64.3017 100.734 62.3655 100.734C61.4067 100.734 60.4568 100.545 59.5709 100.179C58.6853 99.8116 57.8803 99.2737 57.2024 98.5958C56.5246 97.918 55.9865 97.113 55.6197 96.2273C55.2529 95.3415 55.0637 94.3914 55.0638 93.4327L55.0631 84.5794C55.0631 84.5773 55.0631 84.5746 55.0631 84.5725L55.0638 73.3409Z" fill="#6D7E8F"/>
<path d="M65.6128 76.5284C67.2526 74.4925 70.2307 74.1698 72.2641 75.8077C74.2977 77.4457 74.6167 80.424 72.9769 82.4599C71.3369 84.4959 68.3591 84.8185 66.3256 83.1806C64.2921 81.5428 63.9728 78.5644 65.6128 76.5284Z" fill="url(#paint1_radial_36_5005)"/>
<path d="M68.3467 78.7303C68.769 78.206 69.536 78.1229 70.0598 78.5448C70.5835 78.9667 70.6657 79.7338 70.2434 80.2581C69.821 80.7825 69.0541 80.8655 68.5303 80.4436C68.0065 80.0218 67.9243 79.2547 68.3467 78.7303Z" fill="black"/>
<path d="M34.7706 44.336C31.8935 44.336 29.5612 41.0584 29.5612 37.0153C29.5612 32.9721 31.8935 29.6945 34.7706 29.6945C37.6477 29.6945 39.98 32.9721 39.98 37.0153C39.98 41.0584 37.6477 44.336 34.7706 44.336Z" fill="#D8DEE8" stroke="#005BE3" stroke-width="0.690645" stroke-miterlimit="10"/>
<path d="M50.692 19.276H60.4967C70.5501 19.276 78.7002 27.4258 78.7002 37.4795C78.7002 42.8442 74.3514 47.1931 68.9866 47.1931H42.2018C36.8371 47.1931 32.4883 42.8442 32.4883 37.4795C32.4883 27.4261 40.6383 19.276 50.6918 19.276H50.692Z" fill="white" stroke="#005BE3" stroke-width="0.55294" stroke-miterlimit="10"/>
<path d="M52.414 67.0979H58.7751C65.2974 67.0979 70.585 61.8104 70.585 55.288C70.585 51.8075 67.7636 48.9862 64.2831 48.9862H46.906C43.4257 48.9862 40.6042 51.8077 40.6042 55.288C40.6042 61.8104 45.8917 67.0979 52.414 67.0979Z" fill="white" stroke="#005BE3" stroke-width="0.55294" stroke-miterlimit="10"/>
<g style="mix-blend-mode:soft-light" opacity="0.3">
<path d="M48.831 44.6396C51.6029 41.3828 50.371 38.7783 53.9948 34.3648C58.9808 28.2921 64.7975 28.9793 66.1298 24.8605C66.499 23.7193 66.5414 22.1529 65.5512 19.9874C73.1455 22.1779 78.7002 29.1795 78.7002 37.479C78.7002 42.8438 74.3514 47.1926 68.9868 47.1926H45.6443C47.0425 46.4305 48.0643 45.5403 48.831 44.6394V44.6396Z" fill="white"/>
<path d="M48.831 44.6396C51.6029 41.3828 50.371 38.7783 53.9948 34.3648C58.9808 28.2921 64.7975 28.9793 66.1298 24.8605C66.499 23.7193 66.5414 22.1529 65.5512 19.9874C73.1455 22.1779 78.7002 29.1795 78.7002 37.479C78.7002 42.8438 74.3514 47.1926 68.9868 47.1926H45.6443C47.0425 46.4305 48.0643 45.5403 48.831 44.6394V44.6396Z" stroke="#005BE3" stroke-width="0.105927"/>
</g>
<path d="M76.0806 44.2852C73.2036 44.2852 70.8712 41.0076 70.8712 36.9645C70.8712 32.9214 73.2036 29.6438 76.0806 29.6438C78.9577 29.6438 81.29 32.9214 81.29 36.9645C81.29 41.0076 78.9577 44.2852 76.0806 44.2852Z" fill="#D8DEE8" stroke="#005BE3" stroke-width="0.690645" stroke-miterlimit="10"/>
<path d="M79.8704 40.213C78.6122 40.213 77.5923 38.7798 77.5923 37.0118C77.5923 35.2438 78.6122 33.8105 79.8704 33.8105C81.1285 33.8105 82.1484 35.2438 82.1484 37.0118C82.1484 38.7798 81.1285 40.213 79.8704 40.213Z" fill="#BFC8D6" stroke="#005BE3" stroke-width="0.690645" stroke-miterlimit="10"/>
<g style="mix-blend-mode:multiply" opacity="0.4">
<path d="M50.8476 60.5963C51.7202 56.4978 61.3736 56.5967 61.636 53.9177C61.8383 51.8526 56.2961 49.8078 55.5996 49.5509C55.0039 49.3311 54.4128 49.1452 53.8274 48.986H64.2831C67.7634 48.986 70.585 51.8073 70.585 55.2878C70.585 61.8104 65.2977 67.0977 58.7751 67.0977H52.414C51.8029 67.0977 51.2024 67.0512 50.6164 66.9617C51.1699 66.2756 51.5309 65.5251 51.6182 64.706C51.8118 62.8903 50.5093 62.1842 50.8476 60.5961V60.5963Z" fill="#D8DEE8"/>
<path d="M50.8476 60.5963C51.7202 56.4978 61.3736 56.5967 61.636 53.9177C61.8383 51.8526 56.2961 49.8078 55.5996 49.5509C55.0039 49.3311 54.4128 49.1452 53.8274 48.986H64.2831C67.7634 48.986 70.585 51.8073 70.585 55.2878C70.585 61.8104 65.2977 67.0977 58.7751 67.0977H52.414C51.8029 67.0977 51.2024 67.0512 50.6164 66.9617C51.1699 66.2756 51.5309 65.5251 51.6182 64.706C51.8118 62.8903 50.5093 62.1842 50.8476 60.5961V60.5963Z" stroke="#005BE3" stroke-width="0.137705" stroke-miterlimit="10"/>
</g>
<path d="M55.4377 50.5534C49.8894 50.5534 45.3916 50.0088 45.3916 49.337C45.3916 48.6652 49.8894 48.1207 55.4377 48.1207C60.9861 48.1207 65.4839 48.6652 65.4839 49.337C65.4839 50.0088 60.9861 50.5534 55.4377 50.5534Z" fill="#D8DEE8" stroke="#005BE3" stroke-width="0.55294" stroke-miterlimit="10"/>
<g filter="url(#filter5_ddddd_36_5005)">
<rect x="35.7144" y="24.1244" width="33.4434" height="13.043" rx="5.13218" fill="#97C0FF"/>
<rect width="25.2332" height="9.72528" transform="translate(39.8193 25.7833)" fill="#97C0FF"/>
<circle cx="60.2824" cy="30.5536" r="4.77024" fill="#002E72"/>
<circle cx="60.2406" cy="30.7797" r="4.36901" transform="rotate(-4.93842 60.2406 30.7797)" fill="#005BE3"/>
<circle cx="59.9254" cy="30.9994" r="3.70028" fill="black"/>
<path d="M59.2123 30.5023C58.945 30.6898 58.6149 30.7651 58.2927 30.712C57.9706 30.659 57.682 30.4819 57.4889 30.2186C57.2958 29.9553 57.2135 29.6268 57.2598 29.3036C57.306 28.9804 57.477 28.6882 57.7362 28.4895C57.9953 28.2909 58.322 28.2018 58.6461 28.2412C58.9702 28.2805 59.266 28.4454 59.47 28.7003C59.6741 28.9552 59.7701 29.2799 59.7376 29.6047C59.705 29.9296 59.5465 30.2288 59.2959 30.4382L58.4955 29.4803L59.2123 30.5023Z" fill="white"/>
<circle cx="61.4851" cy="33.3611" r="0.52985" transform="rotate(-101.256 61.4851 33.3611)" fill="white"/>
<circle cx="44.5896" cy="30.5536" r="4.77024" fill="#002E72"/>
<circle cx="44.5482" cy="30.7797" r="4.36901" transform="rotate(-4.93842 44.5482 30.7797)" fill="#005BE3"/>
<circle cx="44.2325" cy="30.9994" r="3.70028" fill="black"/>
<path d="M43.5195 30.5023C43.2522 30.6898 42.922 30.7651 42.5999 30.712C42.2777 30.659 41.9891 30.4819 41.796 30.2186C41.6029 29.9553 41.5207 29.6268 41.5669 29.3036C41.6131 28.9804 41.7841 28.6882 42.0433 28.4895C42.3024 28.2909 42.6291 28.2018 42.9532 28.2412C43.2773 28.2805 43.5731 28.4454 43.7771 28.7003C43.9812 28.9552 44.0772 29.2799 44.0447 29.6047C44.0121 29.9296 43.8536 30.2288 43.6031 30.4382L42.8026 29.4803L43.5195 30.5023Z" fill="white"/>
<circle cx="45.7922" cy="33.3611" r="0.52985" transform="rotate(-101.256 45.7922 33.3611)" fill="white"/>
</g>
<g filter="url(#filter6_ddddd_36_5005)">
<path d="M63.4135 39.4295C62.6379 41.2784 61.3314 42.8557 59.6592 43.9621C57.9871 45.0685 56.0245 45.6541 54.0195 45.645C52.0145 45.636 50.0572 45.0325 48.3952 43.9111C46.7332 42.7896 45.441 41.2005 44.6821 39.3446L45.5817 38.9768C46.2678 40.6547 47.4361 42.0915 48.9388 43.1054C50.4415 44.1194 52.2111 44.665 54.0239 44.6732C55.8367 44.6814 57.6111 44.1519 59.123 43.1516C60.6348 42.1513 61.816 40.7252 62.5173 39.0535L63.4135 39.4295Z" fill="#005BE3"/>
</g>
<path d="M78.8978 51.7742C79.2505 51.976 79.7001 51.8537 79.902 51.501L84.4194 43.6072C85.5955 41.552 84.8787 38.9222 82.8215 37.745L81.9961 37.2727C81.6434 37.0708 81.1938 37.1931 80.992 37.5458C80.7901 37.8985 80.9125 38.3481 81.2651 38.5499L82.0905 39.0223C83.4434 39.7965 83.9152 41.5254 83.1421 42.8763L78.6246 50.7702C78.4229 51.123 78.5452 51.5723 78.8978 51.7742Z" fill="url(#paint2_linear_36_5005)"/>
<path d="M80.2687 38.6895L81.4872 39.3868C82.1076 39.7419 82.8983 39.5268 83.2534 38.9064C83.6085 38.286 83.3934 37.4952 82.7729 37.1402L81.5544 36.4429C80.934 36.0879 80.1432 36.303 79.7882 36.9234C79.4331 37.5439 79.6482 38.3345 80.2687 38.6896L80.2687 38.6895Z" fill="#2C3245"/>
<path d="M32.5235 51.7743C32.1709 51.9762 31.7213 51.8539 31.5194 51.5012L27.002 43.6074C25.8259 41.5522 26.5427 38.9224 28.5999 37.7452L29.4253 37.2728C29.778 37.071 30.2276 37.1933 30.4294 37.546C30.6312 37.8987 30.5089 38.3482 30.1562 38.5501L29.3309 39.0224C27.978 39.7966 27.5062 41.5256 28.2793 42.8765L32.7968 50.7704C32.9985 51.1231 32.8762 51.5725 32.5235 51.7743Z" fill="url(#paint3_linear_36_5005)"/>
<path d="M32.0053 38.1219L30.7868 38.8192C30.1663 39.1742 29.3757 38.9592 29.0206 38.3387C28.6654 37.7183 28.8806 36.9276 29.501 36.5726L30.7195 35.8753C31.3399 35.5202 32.1307 35.7353 32.4857 36.3557C32.8408 36.9762 32.6257 37.7669 32.0052 38.1219L32.0053 38.1219Z" fill="#2C3245"/>
<ellipse cx="31.7361" cy="36.7757" rx="0.571683" ry="1.25754" transform="rotate(-29.7152 31.7361 36.7757)" fill="#D9D9D9"/>
<ellipse cx="31.9393" cy="36.6319" rx="0.709935" ry="1.15445" transform="rotate(-29.7152 31.9393 36.6319)" fill="#6D758F"/>
<ellipse cx="32.1431" cy="36.5152" rx="0.442279" ry="0.92929" transform="rotate(-29.7152 32.1431 36.5152)" fill="black"/>
<path d="M77.8379 51.2199C78.18 50.713 78.8686 50.5787 79.376 50.9201C79.8833 51.2622 80.0176 51.9526 79.6758 52.4601L72.4736 63.1476C72.315 63.3827 72.0811 63.5362 71.8262 63.6008C71.8238 63.6015 71.8207 63.6029 71.8184 63.6037L60.0137 67.133L59.9639 69.7834C59.9175 72.1978 57.9132 74.1244 55.4961 74.0783C53.0791 74.0318 51.151 72.0296 51.1973 69.6154L51.2461 67.0617L39.6816 63.6047C39.6782 63.6036 39.6743 63.6019 39.6709 63.6008C39.4172 63.5358 39.1853 63.3817 39.0273 63.1476L31.8242 52.4592C31.4825 51.9515 31.6175 51.2621 32.125 50.9201C32.6324 50.5789 33.3211 50.7129 33.6631 51.2199L40.6426 61.5773L52.665 65.172C52.6685 65.173 52.6724 65.1739 52.6758 65.175C53.5777 64.9083 54.721 64.7836 55.5586 64.8078C56.4307 64.833 57.6421 64.9982 58.5879 65.2824C58.6643 65.2371 58.747 65.1987 58.8359 65.172L70.8584 61.5773L77.8379 51.2199ZM53.71 69.6642C53.6903 70.6946 54.5134 71.5487 55.5449 71.5685C56.5759 71.5878 57.4312 70.7664 57.4512 69.7365L57.501 67.1388C56.8632 67.2729 56.1991 67.3355 55.5195 67.3185C54.9143 67.3034 54.3251 67.2249 53.7588 67.09L53.71 69.6642Z" fill="#2356C9"/>
<path d="M34.846 44.2332C31.9735 44.3954 29.4601 41.2545 29.2321 37.2178C29.0041 33.1812 31.148 29.7773 34.0204 29.615C34.0204 29.615 32.6648 32.9744 32.8927 37.0111C33.1207 41.0478 34.846 44.2332 34.846 44.2332Z" fill="#D8DEE8" stroke="#005BE3" stroke-width="0.690645" stroke-miterlimit="10"/>
</g>
<defs>
<filter id="filter0_dd_36_5005" x="99.497" y="33.7906" width="158.598" height="63.8231" filterUnits="userSpaceOnUse" color-interpolation-filters="sRGB">
<feFlood flood-opacity="0" result="BackgroundImageFix"/>
<feColorMatrix in="SourceAlpha" type="matrix" values="0 0 0 0 0 0 0 0 0 0 0 0 0 0 0 0 0 0 127 0" result="hardAlpha"/>
<feOffset dy="6.94337"/>
<feGaussianBlur stdDeviation="6.37795"/>
<feComposite in2="hardAlpha" operator="out"/>
<feColorMatrix type="matrix" values="0 0 0 0 0.00387722 0 0 0 0 0.127848 0 0 0 0 0.289964 0 0 0 0.13 0"/>
<feBlend mode="normal" in2="BackgroundImageFix" result="effect1_dropShadow_36_5005"/>
<feColorMatrix in="SourceAlpha" type="matrix" values="0 0 0 0 0 0 0 0 0 0 0 0 0 0 0 0 0 0 127 0" result="hardAlpha"/>
<feOffset dy="3.61631"/>
<feGaussianBlur stdDeviation="3.25468"/>
<feComposite in2="hardAlpha" operator="out"/>
<feColorMatrix type="matrix" values="0 0 0 0 0.00377753 0 0 0 0 0.297742 0 0 0 0 0.519757 0 0 0 0.33 0"/>
<feBlend mode="normal" in2="effect1_dropShadow_36_5005" result="effect2_dropShadow_36_5005"/>
<feBlend mode="normal" in="SourceGraphic" in2="effect2_dropShadow_36_5005" result="shape"/>
</filter>
<filter id="filter1_dd_36_5005" x="256.854" y="34.8172" width="91.3204" height="66.5031" filterUnits="userSpaceOnUse" color-interpolation-filters="sRGB">
<feFlood flood-opacity="0" result="BackgroundImageFix"/>
<feColorMatrix in="SourceAlpha" type="matrix" values="0 0 0 0 0 0 0 0 0 0 0 0 0 0 0 0 0 0 127 0" result="hardAlpha"/>
<feOffset dy="6.94337"/>
<feGaussianBlur stdDeviation="6.37795"/>
<feComposite in2="hardAlpha" operator="out"/>
<feColorMatrix type="matrix" values="0 0 0 0 0.00387722 0 0 0 0 0.127848 0 0 0 0 0.289964 0 0 0 0.13 0"/>
<feBlend mode="normal" in2="BackgroundImageFix" result="effect1_dropShadow_36_5005"/>
<feColorMatrix in="SourceAlpha" type="matrix" values="0 0 0 0 0 0 0 0 0 0 0 0 0 0 0 0 0 0 127 0" result="hardAlpha"/>
<feOffset dy="3.61631"/>
<feGaussianBlur stdDeviation="3.25468"/>
<feComposite in2="hardAlpha" operator="out"/>
<feColorMatrix type="matrix" values="0 0 0 0 0.00377753 0 0 0 0 0.297742 0 0 0 0 0.519757 0 0 0 0.44 0"/>
<feBlend mode="normal" in2="effect1_dropShadow_36_5005" result="effect2_dropShadow_36_5005"/>
<feBlend mode="normal" in="SourceGraphic" in2="effect2_dropShadow_36_5005" result="shape"/>
</filter>
<filter id="filter2_ddddd_36_5005" x="14.5674" y="9.72838" width="89.5205" height="110.794" filterUnits="userSpaceOnUse" color-interpolation-filters="sRGB">
<feFlood flood-opacity="0" result="BackgroundImageFix"/>
<feColorMatrix in="SourceAlpha" type="matrix" values="0 0 0 0 0 0 0 0 0 0 0 0 0 0 0 0 0 0 127 0" result="hardAlpha"/>
<feOffset/>
<feGaussianBlur stdDeviation="0.5"/>
<feColorMatrix type="matrix" values="0 0 0 0 0 0 0 0 0 0 0 0 0 0 0 0 0 0 0.98 0"/>
<feBlend mode="normal" in2="BackgroundImageFix" result="effect1_dropShadow_36_5005"/>
<feColorMatrix in="SourceAlpha" type="matrix" values="0 0 0 0 0 0 0 0 0 0 0 0 0 0 0 0 0 0 127 0" result="hardAlpha"/>
<feOffset dx="1" dy="1"/>
<feGaussianBlur stdDeviation="0.5"/>
<feColorMatrix type="matrix" values="0 0 0 0 0 0 0 0 0 0 0 0 0 0 0 0 0 0 0.85 0"/>
<feBlend mode="normal" in2="effect1_dropShadow_36_5005" result="effect2_dropShadow_36_5005"/>
<feColorMatrix in="SourceAlpha" type="matrix" values="0 0 0 0 0 0 0 0 0 0 0 0 0 0 0 0 0 0 127 0" result="hardAlpha"/>
<feOffset dx="2" dy="2"/>
<feGaussianBlur stdDeviation="1"/>
<feColorMatrix type="matrix" values="0 0 0 0 0 0 0 0 0 0 0 0 0 0 0 0 0 0 0.5 0"/>
<feBlend mode="normal" in2="effect2_dropShadow_36_5005" result="effect3_dropShadow_36_5005"/>
<feColorMatrix in="SourceAlpha" type="matrix" values="0 0 0 0 0 0 0 0 0 0 0 0 0 0 0 0 0 0 127 0" result="hardAlpha"/>
<feOffset dx="3" dy="4"/>
<feGaussianBlur stdDeviation="1"/>
<feColorMatrix type="matrix" values="0 0 0 0 0 0 0 0 0 0 0 0 0 0 0 0 0 0 0.15 0"/>
<feBlend mode="normal" in2="effect3_dropShadow_36_5005" result="effect4_dropShadow_36_5005"/>
<feColorMatrix in="SourceAlpha" type="matrix" values="0 0 0 0 0 0 0 0 0 0 0 0 0 0 0 0 0 0 127 0" result="hardAlpha"/>
<feOffset dx="5" dy="7"/>
<feGaussianBlur stdDeviation="1"/>
<feColorMatrix type="matrix" values="0 0 0 0 0 0 0 0 0 0 0 0 0 0 0 0 0 0 0.02 0"/>
<feBlend mode="normal" in2="effect4_dropShadow_36_5005" result="effect5_dropShadow_36_5005"/>
<feBlend mode="normal" in="SourceGraphic" in2="effect5_dropShadow_36_5005" result="shape"/>
</filter>
<filter id="filter3_dd_36_5005" x="5.72205e-05" y="-5.72205e-06" width="112.655" height="131.929" filterUnits="userSpaceOnUse" color-interpolation-filters="sRGB">
<feFlood flood-opacity="0" result="BackgroundImageFix"/>
<feColorMatrix in="SourceAlpha" type="matrix" values="0 0 0 0 0 0 0 0 0 0 0 0 0 0 0 0 0 0 127 0" result="hardAlpha"/>
<feOffset dy="3.79847"/>
<feGaussianBlur stdDeviation="1.83145"/>
<feComposite in2="hardAlpha" operator="out"/>
<feColorMatrix type="matrix" values="0 0 0 0 0 0 0 0 0 0 0 0 0 0 0 0 0 0 0.06 0"/>
<feBlend mode="normal" in2="BackgroundImageFix" result="effect1_dropShadow_36_5005"/>
<feColorMatrix in="SourceAlpha" type="matrix" values="0 0 0 0 0 0 0 0 0 0 0 0 0 0 0 0 0 0 127 0" result="hardAlpha"/>
<feOffset dy="4.83894"/>
<feGaussianBlur stdDeviation="7.78366"/>
<feComposite in2="hardAlpha" operator="out"/>
<feColorMatrix type="matrix" values="0 0 0 0 0 0 0 0 0 0 0 0 0 0 0 0 0 0 0.1 0"/>
<feBlend mode="normal" in2="effect1_dropShadow_36_5005" result="effect2_dropShadow_36_5005"/>
<feBlend mode="normal" in="SourceGraphic" in2="effect2_dropShadow_36_5005" result="shape"/>
</filter>
<filter id="filter4_ddddd_36_5005" x="25.8744" y="18.4379" width="63.6039" height="88.4744" filterUnits="userSpaceOnUse" color-interpolation-filters="sRGB">
<feFlood flood-opacity="0" result="BackgroundImageFix"/>
<feColorMatrix in="SourceAlpha" type="matrix" values="0 0 0 0 0 0 0 0 0 0 0 0 0 0 0 0 0 0 127 0" result="hardAlpha"/>
<feOffset/>
<feGaussianBlur stdDeviation="0.280811"/>
<feColorMatrix type="matrix" values="0 0 0 0 0 0 0 0 0 0 0 0 0 0 0 0 0 0 0.98 0"/>
<feBlend mode="normal" in2="BackgroundImageFix" result="effect1_dropShadow_36_5005"/>
<feColorMatrix in="SourceAlpha" type="matrix" values="0 0 0 0 0 0 0 0 0 0 0 0 0 0 0 0 0 0 127 0" result="hardAlpha"/>
<feOffset dx="0.561622" dy="0.561622"/>
<feGaussianBlur stdDeviation="0.280811"/>
<feColorMatrix type="matrix" values="0 0 0 0 0 0 0 0 0 0 0 0 0 0 0 0 0 0 0.85 0"/>
<feBlend mode="normal" in2="effect1_dropShadow_36_5005" result="effect2_dropShadow_36_5005"/>
<feColorMatrix in="SourceAlpha" type="matrix" values="0 0 0 0 0 0 0 0 0 0 0 0 0 0 0 0 0 0 127 0" result="hardAlpha"/>
<feOffset dx="1.12324" dy="1.68487"/>
<feGaussianBlur stdDeviation="0.561622"/>
<feColorMatrix type="matrix" values="0 0 0 0 0 0 0 0 0 0 0 0 0 0 0 0 0 0 0.5 0"/>
<feBlend mode="normal" in2="effect2_dropShadow_36_5005" result="effect3_dropShadow_36_5005"/>
<feColorMatrix in="SourceAlpha" type="matrix" values="0 0 0 0 0 0 0 0 0 0 0 0 0 0 0 0 0 0 127 0" result="hardAlpha"/>
<feOffset dx="1.68487" dy="2.80811"/>
<feGaussianBlur stdDeviation="0.561622"/>
<feColorMatrix type="matrix" values="0 0 0 0 0 0 0 0 0 0 0 0 0 0 0 0 0 0 0.15 0"/>
<feBlend mode="normal" in2="effect3_dropShadow_36_5005" result="effect4_dropShadow_36_5005"/>
<feColorMatrix in="SourceAlpha" type="matrix" values="0 0 0 0 0 0 0 0 0 0 0 0 0 0 0 0 0 0 127 0" result="hardAlpha"/>
<feOffset dx="2.80811" dy="4.49298"/>
<feGaussianBlur stdDeviation="0.842434"/>
<feColorMatrix type="matrix" values="0 0 0 0 0 0 0 0 0 0 0 0 0 0 0 0 0 0 0.02 0"/>
<feBlend mode="normal" in2="effect4_dropShadow_36_5005" result="effect5_dropShadow_36_5005"/>
<feBlend mode="normal" in="SourceGraphic" in2="effect5_dropShadow_36_5005" result="shape"/>
</filter>
<filter id="filter5_ddddd_36_5005" x="35.6084" y="24.0185" width="35.2441" height="14.2083" filterUnits="userSpaceOnUse" color-interpolation-filters="sRGB">
<feFlood flood-opacity="0" result="BackgroundImageFix"/>
<feColorMatrix in="SourceAlpha" type="matrix" values="0 0 0 0 0 0 0 0 0 0 0 0 0 0 0 0 0 0 127 0" result="hardAlpha"/>
<feOffset/>
<feGaussianBlur stdDeviation="0.0529636"/>
<feColorMatrix type="matrix" values="0 0 0 0 0 0 0 0 0 0 0 0 0 0 0 0 0 0 0.98 0"/>
<feBlend mode="normal" in2="BackgroundImageFix" result="effect1_dropShadow_36_5005"/>
<feColorMatrix in="SourceAlpha" type="matrix" values="0 0 0 0 0 0 0 0 0 0 0 0 0 0 0 0 0 0 127 0" result="hardAlpha"/>
<feOffset dx="0.211854" dy="0.105927"/>
<feGaussianBlur stdDeviation="0.105927"/>
<feColorMatrix type="matrix" values="0 0 0 0 0 0 0 0 0 0 0 0 0 0 0 0 0 0 0.85 0"/>
<feBlend mode="normal" in2="effect1_dropShadow_36_5005" result="effect2_dropShadow_36_5005"/>
<feColorMatrix in="SourceAlpha" type="matrix" values="0 0 0 0 0 0 0 0 0 0 0 0 0 0 0 0 0 0 127 0" result="hardAlpha"/>
<feOffset dx="0.423709" dy="0.211854"/>
<feGaussianBlur stdDeviation="0.158891"/>
<feColorMatrix type="matrix" values="0 0 0 0 0 0 0 0 0 0 0 0 0 0 0 0 0 0 0.5 0"/>
<feBlend mode="normal" in2="effect2_dropShadow_36_5005" result="effect3_dropShadow_36_5005"/>
<feColorMatrix in="SourceAlpha" type="matrix" values="0 0 0 0 0 0 0 0 0 0 0 0 0 0 0 0 0 0 127 0" result="hardAlpha"/>
<feOffset dx="0.847417" dy="0.423709"/>
<feGaussianBlur stdDeviation="0.211854"/>
<feColorMatrix type="matrix" values="0 0 0 0 0 0 0 0 0 0 0 0 0 0 0 0 0 0 0.15 0"/>
<feBlend mode="normal" in2="effect3_dropShadow_36_5005" result="effect4_dropShadow_36_5005"/>
<feColorMatrix in="SourceAlpha" type="matrix" values="0 0 0 0 0 0 0 0 0 0 0 0 0 0 0 0 0 0 127 0" result="hardAlpha"/>
<feOffset dx="1.27113" dy="0.635563"/>
<feGaussianBlur stdDeviation="0.211854"/>
<feColorMatrix type="matrix" values="0 0 0 0 0 0 0 0 0 0 0 0 0 0 0 0 0 0 0.02 0"/>
<feBlend mode="normal" in2="effect4_dropShadow_36_5005" result="effect5_dropShadow_36_5005"/>
<feBlend mode="normal" in="SourceGraphic" in2="effect5_dropShadow_36_5005" result="shape"/>
</filter>
<filter id="filter6_ddddd_36_5005" x="44.5762" y="38.8709" width="19.8966" height="7.30393" filterUnits="userSpaceOnUse" color-interpolation-filters="sRGB">
<feFlood flood-opacity="0" result="BackgroundImageFix"/>
<feColorMatrix in="SourceAlpha" type="matrix" values="0 0 0 0 0 0 0 0 0 0 0 0 0 0 0 0 0 0 127 0" result="hardAlpha"/>
<feOffset/>
<feGaussianBlur stdDeviation="0.0529636"/>
<feColorMatrix type="matrix" values="0 0 0 0 0 0 0 0 0 0 0 0 0 0 0 0 0 0 0.98 0"/>
<feBlend mode="normal" in2="BackgroundImageFix" result="effect1_dropShadow_36_5005"/>
<feColorMatrix in="SourceAlpha" type="matrix" values="0 0 0 0 0 0 0 0 0 0 0 0 0 0 0 0 0 0 127 0" result="hardAlpha"/>
<feOffset dx="0.105927" dy="0.105927"/>
<feGaussianBlur stdDeviation="0.0529636"/>
<feColorMatrix type="matrix" values="0 0 0 0 0 0 0 0 0 0 0 0 0 0 0 0 0 0 0.85 0"/>
<feBlend mode="normal" in2="effect1_dropShadow_36_5005" result="effect2_dropShadow_36_5005"/>
<feColorMatrix in="SourceAlpha" type="matrix" values="0 0 0 0 0 0 0 0 0 0 0 0 0 0 0 0 0 0 127 0" result="hardAlpha"/>
<feOffset dx="0.317781" dy="0.105927"/>
<feGaussianBlur stdDeviation="0.105927"/>
<feColorMatrix type="matrix" values="0 0 0 0 0 0 0 0 0 0 0 0 0 0 0 0 0 0 0.5 0"/>
<feBlend mode="normal" in2="effect2_dropShadow_36_5005" result="effect3_dropShadow_36_5005"/>
<feColorMatrix in="SourceAlpha" type="matrix" values="0 0 0 0 0 0 0 0 0 0 0 0 0 0 0 0 0 0 127 0" result="hardAlpha"/>
<feOffset dx="0.529636" dy="0.211854"/>
<feGaussianBlur stdDeviation="0.105927"/>
<feColorMatrix type="matrix" values="0 0 0 0 0 0 0 0 0 0 0 0 0 0 0 0 0 0 0.15 0"/>
<feBlend mode="normal" in2="effect3_dropShadow_36_5005" result="effect4_dropShadow_36_5005"/>
<feColorMatrix in="SourceAlpha" type="matrix" values="0 0 0 0 0 0 0 0 0 0 0 0 0 0 0 0 0 0 127 0" result="hardAlpha"/>
<feOffset dx="0.847417" dy="0.317781"/>
<feGaussianBlur stdDeviation="0.105927"/>
<feColorMatrix type="matrix" values="0 0 0 0 0 0 0 0 0 0 0 0 0 0 0 0 0 0 0.02 0"/>
<feBlend mode="normal" in2="effect4_dropShadow_36_5005" result="effect5_dropShadow_36_5005"/>
<feBlend mode="normal" in="SourceGraphic" in2="effect5_dropShadow_36_5005" result="shape"/>
</filter>
<linearGradient id="paint0_linear_36_5005" x1="342.12" y1="59.1026" x2="260.423" y2="59.1026" gradientUnits="userSpaceOnUse">
<stop stop-color="#2370FF"/>
<stop offset="1" stop-color="#4E8CFF"/>
</linearGradient>
<radialGradient id="paint1_radial_36_5005" cx="0" cy="0" r="1" gradientUnits="userSpaceOnUse" gradientTransform="translate(69.2948 79.4942) rotate(45) scale(4.72837 4.73388)">
<stop stop-color="#49516D"/>
<stop offset="1" stop-color="#8D9DD3"/>
</radialGradient>
<linearGradient id="paint2_linear_36_5005" x1="89.8964" y1="48.3229" x2="80.144" y2="42.4846" gradientUnits="userSpaceOnUse">
<stop stop-color="white"/>
<stop offset="0.464989" stop-color="#DADCE3"/>
<stop offset="0.552962" stop-color="#757B91"/>
<stop offset="0.63804" stop-color="#353E5C"/>
<stop offset="0.714922" stop-color="#59617C"/>
<stop offset="0.825924" stop-color="#8E94A9"/>
<stop offset="1" stop-color="#6D758F"/>
</linearGradient>
<linearGradient id="paint3_linear_36_5005" x1="21.5249" y1="48.323" x2="31.2774" y2="42.4848" gradientUnits="userSpaceOnUse">
<stop stop-color="white"/>
<stop offset="0.464989" stop-color="#DADCE3"/>
<stop offset="0.552962" stop-color="#757B91"/>
<stop offset="0.63804" stop-color="#353E5C"/>
<stop offset="0.714922" stop-color="#59617C"/>
<stop offset="0.825924" stop-color="#8E94A9"/>
<stop offset="1" stop-color="#6D758F"/>
</linearGradient>
</defs>
</svg>
